<svg width="20" height="20" viewBox="0 0 20 20" fill="none" xmlns="http://www.w3.org/2000/svg">
<path d="M18.8 10.2083C18.8 9.55825 18.7417 8.93325 18.6333 8.33325H10V11.8791H14.9333C14.7208 13.0249 14.075 13.9958 13.1042 14.6458V16.9458H16.0667C17.8 15.3499 18.8 12.9999 18.8 10.2083Z" fill="#4285F4"/>
<path d="M9.99999 19.1667C12.475 19.1667 14.55 18.3459 16.0667 16.9459L13.1042 14.6459C12.2833 15.1959 11.2333 15.5209 9.99999 15.5209C7.61249 15.5209 5.59165 13.9084 4.87082 11.7417H1.80832V14.1167C3.31665 17.1125 6.41665 19.1667 9.99999 19.1667Z" fill="#34A853"/>
<path d="M4.87084 11.7416C4.68751 11.1916 4.58334 10.6041 4.58334 9.99997C4.58334 9.3958 4.68751 8.8083 4.87084 8.2583V5.8833H1.80834C1.16668 7.16068 0.832778 8.57048 0.833344 9.99997C0.833344 11.4791 1.18751 12.8791 1.80834 14.1166L4.87084 11.7416Z" fill="#FBBC05"/>
<path d="M9.99999 4.47909C11.3458 4.47909 12.5542 4.94159 13.5042 5.84992L16.1333 3.22075C14.5458 1.74159 12.4708 0.833252 9.99999 0.833252C6.41665 0.833252 3.31665 2.88742 1.80832 5.88325L4.87082 8.25825C5.59165 6.09159 7.61249 4.47909 9.99999 4.47909Z" fill="#EA4335"/>
</svg>
